<svg width="526" height="54" viewBox="0 0 526 54" fill="none" xmlns="http://www.w3.org/2000/svg">
<path d="M317 1.57767H305.437V21.1585L300.759 26.8225L296.062 21.1585V1.57767H284.499V25.3121L294.977 37.9164V51.4197H306.522V37.9164L317 25.3121V1.57767Z" fill="white"/>
<path d="M152.93 1.85056H164.474V51.5306H152.93V1.85056Z" fill="white"/>
<path d="M262.936 51.2223H251.375V7.31377L257.156 1.56006H278.653V13.0675H262.936V51.2223Z" fill="white"/>
<path d="M225.645 39.9482V32.4324H238.31V20.9428H225.645V13.0853L230.125 13.0675L243.53 13.1219L243.567 1.61404L230.143 1.56006L219.827 1.61404L214.082 7.36775V45.684L219.864 51.4377H230.089L243.53 51.4917L243.567 40.0026L230.108 39.9482H225.645Z" fill="white"/>
<path d="M193.707 33.1279L189.01 38.7741L184.313 33.1279V1.82416H172.769V37.2458L184.512 51.4141H193.508L205.251 37.2458V1.82416H193.707V33.1279Z" fill="white"/>
<path d="M23.7388 40.0709H11.5985V13.1001H23.7388V40.0709ZM19.2764 1.71851H0V51.5601H29.5015L35.2467 45.8063V7.47222L29.4656 1.71851H19.2764Z" fill="white"/>
<path d="M58.7461 13.0675L72.1513 13.1219L72.2056 1.61404L58.7645 1.56006L48.4488 1.61404L42.7036 7.36775V45.684L48.4851 51.4377H58.7103L72.1513 51.4917L72.2056 40.0026L58.7461 39.9482H54.2662V32.4324H66.9301V20.9428H54.2662V13.0853L58.7461 13.0675Z" fill="white"/>
<path d="M90.2735 1.71851H78.7292V45.7524L84.5103 51.4882H105.991V39.9991H90.2735V1.71851Z" fill="white"/>
<path d="M133.564 1.82646V20.9393H123.194V1.71851H111.65V51.5244H123.194V32.4289H133.564V51.5244H145.127V1.82646H133.564Z" fill="white"/>
<path d="M0.0717163 40.0744H11.5796V51.5278H0.0717163V40.0744Z" fill="#ED1B36"/>
<path d="M305.478 1.57791H316.987V13.0318H305.478V1.57791Z" fill="#ED1B36"/>
<g clip-path="url(#clip0_3880_246)">
<path d="M524.726 37.1056C524.726 39.8335 524.091 42.4203 522.821 44.8659C521.598 47.3116 519.576 49.3105 516.754 50.8625C513.932 52.3676 510.193 53.1201 505.537 53.1201C503.091 53.1201 501.022 53.0025 499.329 52.7674C497.682 52.5792 496.177 52.25 494.813 51.7797C493.449 51.3094 491.944 50.6979 490.298 49.9454V37.8111C493.026 39.1751 495.754 40.2333 498.482 40.9858C501.21 41.6913 503.561 42.044 505.537 42.044C506.571 42.044 507.442 41.8794 508.147 41.5502C508.853 41.2209 509.37 40.7741 509.699 40.2098C510.075 39.6454 510.264 39.0104 510.264 38.305C510.264 37.4113 510.052 36.6588 509.629 36.0474C509.205 35.436 508.406 34.8011 507.23 34.1426C506.054 33.4842 504.337 32.6846 502.08 31.744C499.963 30.8504 498.153 29.9332 496.648 28.9926C495.19 28.0519 494.014 26.9937 493.12 25.8179C492.227 24.6421 491.568 23.2782 491.145 21.7261C490.722 20.127 490.51 18.2457 490.51 16.0822C490.51 12.837 491.31 10.1327 492.909 7.96918C494.555 5.75867 496.789 4.11255 499.611 3.0308C502.433 1.90203 505.678 1.33765 509.346 1.33765C512.827 1.33765 515.86 1.7139 518.447 2.46642C521.081 3.1719 523.221 3.99497 524.867 4.93561L520.564 15.4473C518.682 14.4596 516.683 13.6836 514.567 13.1192C512.45 12.5078 510.569 12.2021 508.923 12.2021C507.935 12.2021 507.136 12.3432 506.524 12.6254C505.913 12.9076 505.466 13.3073 505.184 13.8247C504.902 14.295 504.761 14.8359 504.761 15.4473C504.761 16.2469 505.019 16.9523 505.537 17.5638C506.101 18.1752 507.065 18.8571 508.429 19.6097C509.84 20.3151 511.792 21.2793 514.285 22.5021C516.542 23.5368 518.447 24.6891 519.999 25.959C521.551 27.2289 522.727 28.7574 523.527 30.5446C524.326 32.2848 524.726 34.4718 524.726 37.1056Z" fill="white"/>
<path d="M469.289 2.04315C475.262 2.04315 479.777 3.4306 482.834 6.2055C485.938 8.9804 487.49 12.9311 487.49 18.0576C487.49 20.3622 487.184 22.5727 486.573 24.6892C485.961 26.7586 484.974 28.6399 483.61 30.333C482.246 31.9791 480.435 33.296 478.178 34.2837C475.92 35.2244 473.122 35.6947 469.782 35.6947H466.608V52.4146H452.216V2.04315H469.289ZM469.218 13.0487H466.608V24.6186H468.654C469.359 24.6186 470.065 24.4305 470.77 24.0542C471.476 23.6309 472.063 22.9725 472.534 22.0789C473.004 21.1382 473.239 19.9154 473.239 18.4104C473.239 16.8113 472.91 15.5179 472.252 14.5302C471.593 13.5425 470.582 13.0487 469.218 13.0487Z" fill="white"/>
<path d="M432.993 52.4146L431.3 42.9612H416.979L415.145 52.4146H399.271L414.016 1.83151H433.769L448.726 52.4146H432.993ZM426.574 23.4193C426.338 22.2905 426.056 21.0206 425.727 19.6097C425.398 18.1987 425.069 16.7407 424.739 15.2357C424.457 13.6836 424.222 12.2256 424.034 10.8617C423.846 12.2256 423.611 13.6601 423.328 15.1651C423.046 16.6702 422.764 18.1282 422.482 19.5391C422.2 20.9501 421.917 22.22 421.635 23.3487L419.66 31.8145H428.549L426.574 23.4193Z" fill="white"/>
<path d="M362.376 52.4146L353.275 15.4473H352.993C353.087 16.388 353.181 17.6578 353.275 19.2569C353.369 20.856 353.464 22.5962 353.558 24.4775C353.652 26.3118 353.699 28.099 353.699 29.8392V52.4146H341V2.04315H361.671L369.078 33.0844H369.29L376.133 2.04315H396.804V52.4146H383.682V29.6275C383.682 28.0284 383.705 26.3353 383.752 24.5481C383.799 22.7138 383.846 20.9971 383.893 19.398C383.987 17.7519 384.081 16.4585 384.176 15.5179H383.893L375.498 52.4146H362.376Z" fill="white"/>
<path d="M353.7 52.41V39.41H341V52.41H353.7Z" fill="#ED1B36"/>
<path d="M520.985 15.9123L525.023 4.86011C525.023 4.86011 521.523 3.36011 520.023 2.86008C518.523 2.36006 513.023 1.3601 513.023 1.3601L509.523 12.3601C509.523 12.3601 513.255 12.6541 515.523 13.3601C517.771 14.0598 520.985 15.9123 520.985 15.9123Z" fill="#ED1B36"/>
</g>
<defs>
<clipPath id="clip0_3880_246">
<rect width="184.586" height="53.1201" fill="white" transform="translate(341)"/>
</clipPath>
</defs>
</svg>
